<svg xmlns="http://www.w3.org/2000/svg" xmlns:xlink="http://www.w3.org/1999/xlink" viewBox="0,0,256,256" width="96px" height="96px" fill-rule="nonzero"><defs><linearGradient x1="31.957" y1="5.932" x2="32.042" y2="57.263" gradientUnits="userSpaceOnUse" id="color-1"><stop offset="0" stop-color="#1a6dff"/><stop offset="1" stop-color="#5c7cfa"/></linearGradient><linearGradient x1="2.308" y1="20.716" x2="34.879" y2="20.716" gradientUnits="userSpaceOnUse" id="color-2"><stop offset="0" stop-color="#cc5de8"/><stop offset="1" stop-color="#fcc419"/></linearGradient><linearGradient x1="28.668" y1="35.576" x2="28.668" y2="52.848" gradientUnits="userSpaceOnUse" id="color-3"><stop offset="0" stop-color="#cc5de8"/><stop offset="1" stop-color="#fcc419"/></linearGradient><linearGradient x1="18.568" y1="5.955" x2="18.653" y2="57.286" gradientUnits="userSpaceOnUse" id="color-4"><stop offset="0" stop-color="#1a6dff"/><stop offset="1" stop-color="#5c7cfa"/></linearGradient><linearGradient x1="36.919" y1="30.161" x2="36.919" y2="40.058" gradientUnits="userSpaceOnUse" id="color-5"><stop offset="0" stop-color="#cc5de8"/><stop offset="1" stop-color="#fcc419"/></linearGradient><linearGradient x1="36.919" y1="30.161" x2="36.919" y2="40.058" gradientUnits="userSpaceOnUse" id="color-6"><stop offset="0" stop-color="#cc5de8"/><stop offset="1" stop-color="#fcc419"/></linearGradient><linearGradient x1="43.339" y1="5.913" x2="43.424" y2="57.244" gradientUnits="userSpaceOnUse" id="color-7"><stop offset="0" stop-color="#1a6dff"/><stop offset="1" stop-color="#5c7cfa"/></linearGradient></defs><g fill="none" fill-rule="nonzero" stroke="none" stroke-width="1" stroke-linecap="butt" stroke-linejoin="miter" stroke-miterlimit="10" stroke-dasharray="" stroke-dashoffset="0" font-family="none" font-weight="none" font-size="none" text-anchor="none" style="mix-blend-mode: normal"><g transform="scale(4,4)"><path d="M32,58c-14.337,0 -26,-11.664 -26,-26c0,-14.336 11.663,-26 26,-26c14.337,0 26,11.664 26,26c0,14.336 -11.663,26 -26,26zM32,8c-13.233,0 -24,10.767 -24,24c0,13.233 10.767,24 24,24c13.233,0 24,-10.767 24,-24c0,-13.233 -10.767,-24 -24,-24z" fill="url(#color-1)"/><path d="M2.842,7.199c-0.108,0 -0.238,0.018 -0.412,0.225c-0.12,0.154 -0.413,0.527 0.769,1.612c0.967,0.887 13.826,14.177 17.351,18.213c2.359,2.7 7.546,6.984 11.42,6.984c0.991,0 1.801,-0.283 2.473,-0.865c0.469,-0.847 0.559,-1.785 0.273,-2.863c-0.987,-3.729 -6.123,-7.787 -9.127,-9.468c-4.679,-2.619 -20.336,-12.458 -21.401,-13.22c-0.715,-0.511 -1.126,-0.618 -1.346,-0.618z" fill="url(#color-2)"/><path d="M41.856,37.809c-16.122,14.382 -29.308,0.599 -31.351,-4.176c1.208,8.288 6.793,15.704 15.229,18.558c6.372,2.156 16.539,2.106 21.097,-6.107z" fill="url(#color-3)"/><path d="M35.78,30.67c-0.16,-0.83 -0.5,-1.67 -0.98,-2.5c-1.91,-3.31 -5.93,-6.45 -8.72,-8.01c-4.58,-2.56 -20.27,-12.41 -21.31,-13.16c-0.62,-0.44 -1.3,-0.8 -1.93,-0.8c-0.42,0 -0.83,0.16 -1.18,0.58c-0.83,1.06 -0.08,2.13 0.86,2.99c0.94,0.87 13.83,14.19 17.28,18.14c2.14,2.44 6.15,5.82 9.85,6.94c0.8,0.24 1.58,0.38 2.32,0.38c0.17,0 0.34,-0.01 0.5,-0.03c1.03,-0.08 1.96,-0.45 2.76,-1.19c0.64,-1.05 0.77,-2.19 0.55,-3.34zM21.3,26.59c-2.93,-3.36 -12.3,-13.09 -15.98,-16.84c4.43,2.82 15.89,9.98 19.78,12.16c2.86,1.6 6.08,4.33 7.71,6.85c-0.68,0.38 -1.31,0.93 -1.84,1.62c-0.63,0.75 -1.07,1.57 -1.28,2.38c-3.02,-1.11 -6.49,-3.99 -8.39,-6.17z" fill="url(#color-4)"/><path d="M42.139,36.694c-0.293,-0.762 -6.917,-6.506 -6.917,-6.506c-0.905,-0.171 -1.96,0.486 -2.7,1.457c-0.798,0.925 -1.223,2.093 -0.869,2.943c0,0 6.987,5.296 7.793,5.426c1.169,0.188 1.027,-0.248 2.344,-0.851v0c0.318,-1.413 0.774,-1.364 0.349,-2.469z" fill="url(#color-5)"/><path d="M42.139,36.694c-0.293,-0.762 -6.917,-6.506 -6.917,-6.506c-0.905,-0.171 -1.96,0.486 -2.7,1.457c-0.798,0.925 -1.223,2.093 -0.869,2.943c0,0 6.987,5.296 7.793,5.426c1.169,0.188 1.027,-0.248 2.344,-0.851v0c0.318,-1.413 0.774,-1.364 0.349,-2.469z" fill="url(#color-6)"/><path d="M46.815,39.054c-1.597,-2.916 -4.219,-3.467 -6.03,-2.057c-1.797,1.399 -1.955,3.065 -1.419,4.72c1.093,3.376 5.489,5.679 2.785,9.161v0c5.205,-2.944 6.719,-8.072 4.664,-11.824z" fill="url(#color-7)"/></g></g></svg>